<svg xmlns="http://www.w3.org/2000/svg" width="35" height="35" viewBox="0 0 15 15">
    <g fill="none" fill-rule="evenodd">
        <path fill="#C8C8D3" d="M8.36.465l6.484 11.03c.28.476.12 1.088-.355 1.367-.153.09-.328.138-.506.138H1.017c-.552 0-.999-.447-.999-.998 0-.178.048-.353.138-.506L6.64.466C6.92-.01 7.53-.17 8.006.11c.146.087.269.209.355.355z"/>
        <path fill="#282838" fill-rule="nonzero" d="M6.5 4h2v4.667h-2V4zm1.007 7c-.304 0-.547-.072-.731-.215-.184-.143-.276-.332-.276-.568 0-.229.092-.415.276-.558.184-.143.427-.215.73-.215.295 0 .534.072.718.215.184.143.276.329.276.558 0 .236-.092.425-.276.568-.184.143-.423.215-.717.215z"/>
    </g>
</svg>
